<svg xmlns="http://www.w3.org/2000/svg" width="28.164" height="28.155" viewBox="0 0 28.164 28.155">
  <g id="Group_48" data-name="Group 48" transform="translate(-779.418 -3658.299)">
    <path id="Path_4940" data-name="Path 4940" d="M51.86,145.909c.4-1.259,1.4-.543,2.142-.844-.045-.874.526-.986,1.281-.939.775.048,1.556.026,2.333.006.575-.015.83.206.825.806q-.028,3.192,0,6.385c0,.582-.219.832-.81.824-1.4-.019-2.792.008-4.188-.014a1.116,1.116,0,0,0-.989.438,4.091,4.091,0,0,1-3.249,1.651,1.14,1.14,0,0,0-.676.368c-1.613,1.59-3.21,3.2-4.811,4.8-.712.713-.861.714-1.553.023q-4.878-4.878-9.757-9.754c-.652-.652-.656-.8-.008-1.451q2.74-2.743,5.484-5.483c.623-.622.787-.621,1.4-.009.389.387.8.757,1.155,1.173a.734.734,0,0,0,.965.205c.591-.242,1.208-.422,1.8-.661a4.24,4.24,0,0,1,3.526.062c1.279.6,2.518,1.295,3.788,1.921A13.422,13.422,0,0,0,51.86,145.909Zm-10.1-.721c1.073,1,1.87,2.237,3.458,2.484a14.536,14.536,0,0,1,2.216.7c.361.118.748.26.587.746s-.538.424-.955.288c-1.519-.5-3.047-.96-4.572-1.437a1,1,0,0,0-1.285.5,1.026,1.026,0,0,0,.348,1.393,2.222,2.222,0,0,0,.6.32c1.23.425,2.472.815,3.693,1.262a2.873,2.873,0,0,1,1.008.64,3.338,3.338,0,0,0,2.671,1.006c.954-.056,2.4-1.1,2.434-1.844.058-1.41.017-2.824.017-4.036-1.08-.5-2.027-.92-2.961-1.369a21.011,21.011,0,0,1-1.944-1.013C45.233,143.693,43.534,144.351,41.758,145.188Zm2.09,6.735c-.138.275-.223.461-.322.638a3.124,3.124,0,0,1-3.485,1.583,3.142,3.142,0,0,1-.28-6.018,1.594,1.594,0,0,0,.484-.236c.455-.388.891-.8,1.361-1.225l-1.02-.976a3.183,3.183,0,0,1-3.157.358c-.841-.429-1.259-.128-1.761.436a.606.606,0,0,0-.134.825,2.969,2.969,0,0,1,.162,2.834,1.153,1.153,0,0,0,.337,1.6c1.628,1.571,3.2,3.2,4.763,4.786,1.93-.842,2.37-.842,4.319.025a11.357,11.357,0,0,1,.771-.88c.259-.246.233-.433.125-.765-.214-.659-.291-1.362-.441-2.043-.033-.152-.1-.373-.206-.418C44.884,152.251,44.382,152.1,43.849,151.924Zm11.358-6.651v5.733h2.1v-5.733Zm-15.239,4.009a1.952,1.952,0,0,0-1.155,2.388,2.01,2.01,0,0,0,2.068,1.439,1.827,1.827,0,0,0,1.788-1.606C41.445,151.176,40.281,150.725,39.968,149.282ZM54,151.029v-4.743h-.863v4.743Zm-9.81,6.355a2.162,2.162,0,0,0-2.343-.08l1.015,1.216Zm-9.663-9.613-1.157,1.1,1.105,1.306A2.29,2.29,0,0,0,34.532,147.771Zm4.129-4.042L37.4,144.807a1.981,1.981,0,0,0,2.36-.032Zm9.014,10.2-1.079-.518.4,1.058Z" transform="translate(749.141 3516.044)" fill="#ed1c24"/>
    <path id="Path_4941" data-name="Path 4941" d="M26.582,274.537c-.317.672-.317.672-2.1.809-.323,1.016-.323,1.016-1.474,1.016-.732,0-1.464,0-2.2,0-.557,0-.838-.229-.834-.824q.022-3.225,0-6.451c0-.6.276-.8.843-.8,1.4.017,2.792.03,4.186-.013a1.4,1.4,0,0,0,.91-.4,4.2,4.2,0,0,1,6.453-.255,2.725,2.725,0,0,0,.95.5c1.1.392,2.231.687,3.294,1.151a4.849,4.849,0,0,1,1.52,1.183.588.588,0,0,0,.733.222c1.138-.336,2.288-.631,3.433-.944,1.473-.4,2.587.085,3.02,1.327a2.313,2.313,0,0,1-1.622,2.9c-1.146.451-2.313.85-3.472,1.268q-2.544.918-5.089,1.832a4.632,4.632,0,0,1-3.786-.239c-1.1-.554-2.18-1.154-3.284-1.7C27.607,274.891,27.1,274.739,26.582,274.537Zm-.143-1.248c.975.418,1.838.756,2.673,1.154.885.422,1.738.911,2.615,1.35a3.817,3.817,0,0,0,3.177.186c2.7-1,5.411-1.941,8.115-2.916a3.161,3.161,0,0,0,.788-.4,1.037,1.037,0,0,0,.407-1.378,1.025,1.025,0,0,0-1.314-.569c-1.342.368-2.687.725-4.02,1.122a1.083,1.083,0,0,0-.58.477,2.2,2.2,0,0,1-2.923,1.172c-1.344-.439-2.7-.856-4.038-1.3-.439-.145-1.171-.137-.912-.88.233-.67.81-.284,1.235-.154,1.4.426,2.782.884,4.175,1.32a1.1,1.1,0,0,0,1.432-.576,1.143,1.143,0,0,0-.6-1.44,3.733,3.733,0,0,0-.568-.236c-1.207-.417-2.422-.812-3.62-1.253a2.468,2.468,0,0,1-.89-.577,3.109,3.109,0,0,0-4.958.414.969.969,0,0,0-.184.495C26.432,270.668,26.438,272.039,26.438,273.289Zm-3.208-3.838H21.138v5.755H23.23Zm2.065,4.736v-4.739h-.872v4.739Z" transform="translate(759.436 3409.096)" fill="#ed1c24"/>
    <path id="Path_4942" data-name="Path 4942" d="M157.27,192.691c-.365.246-.6.522-.761.485-.212-.049-.366-.346-.545-.537.185-.157.364-.429.557-.44S156.915,192.444,157.27,192.691Z" transform="translate(642.13 3472.959)" fill="#ed1c24"/>
  </g>
</svg>
