<svg xmlns="http://www.w3.org/2000/svg" width="46.723" height="26.427" viewBox="0 0 46.723 26.427">
  <g id="Group_17" data-name="Group 17" transform="translate(-118.99 -427.571)">
    <path id="Union_5" data-name="Union 5" d="M18.9,26.405a4.549,4.549,0,0,1-2.822-1.364,4.69,4.69,0,0,1-1.293-2.948h-.09l-.759,0c-.253,0-.5,0-.757,0-.361,0-.658,0-.938.009a2.184,2.184,0,0,1-1.613-.679,2.628,2.628,0,0,1-.725-1.9.836.836,0,0,1,.842-.828h.021a.841.841,0,0,1,.854.764c.007.037.012.074.018.112a1.944,1.944,0,0,0,.1.435.532.532,0,0,0,.54.361h.012c.4-.005.81-.007,1.233-.007.469,0,.948,0,1.465.008h.007a.252.252,0,0,0,.046,0c0-.007.012-.023.025-.053A4.507,4.507,0,0,1,19.354,17.3h.007a4.587,4.587,0,0,1,4.287,3,.24.24,0,0,0,.06.059c1.47.005,3.041.009,5.09.009l2.613,0h.649V17.78c0-4.949,0-10.065,0-15.1a1.7,1.7,0,0,0-.071-.5.553.553,0,0,0-.612-.429l-5.309,0-6.351,0-7.31,0c-.487,0-.679.166-.759.657-.007.037-.011.078-.016.122s-.009.092-.016.138a.859.859,0,0,1-.855.753.832.832,0,0,1-.847-.74A2.594,2.594,0,0,1,10.5.814,2.15,2.15,0,0,1,11.962.021c.108-.009.212-.011.29-.011l.232,0h.359q4.694,0,9.389,0c3.673,0,6.486-.005,9.122-.016h.011A2.431,2.431,0,0,1,33.79,2.47c.009.407.007.819.005,1.217,0,.184,0,.366,0,.549v.09h.156l1.865,0q.931,0,1.865,0c1.055,0,1.918,0,2.712-.01h.034a2.264,2.264,0,0,1,2.19,1.373c1.159,2.349,2.327,4.667,3.622,7.234a3.961,3.961,0,0,1,.433,1.78l.014,1.192c.014,1.286.03,2.615.039,3.924a2.107,2.107,0,0,1-2.248,2.268h-1.8a4.555,4.555,0,0,1-1.916,3.48,4.508,4.508,0,0,1-3.027.84,4.567,4.567,0,0,1-2.714-1.186,4.758,4.758,0,0,1-1.495-3.115H23.915A4.529,4.529,0,0,1,21.97,25.6a4.382,4.382,0,0,1-2.59.83C19.221,26.428,19.058,26.421,18.9,26.405Zm17.2-2.562a2.82,2.82,0,0,0,2,.844h.08a2.827,2.827,0,0,0-.041-5.653h-.016a2.843,2.843,0,0,0-2.848,2.808A2.8,2.8,0,0,0,36.092,23.843Zm-16.733.842a2.821,2.821,0,1,0-2.841-2.823A2.818,2.818,0,0,0,19.359,24.685Zm18.748-7.391A4.537,4.537,0,0,1,42.4,20.3a.425.425,0,0,0,.026.059.172.172,0,0,0,.037,0h.009c.246-.005.508-.007.846-.007h.007l.957,0h.2a.6.6,0,0,0,.408-.115.545.545,0,0,0,.11-.36c0-.026,0-.053,0-.082v-.022q-.014-1.173-.028-2.347-.008-.722-.016-1.443-.006-.513-.012-1.025c0-.1-.007-.2-.016-.31H36.64V12.039c0-1.178,0-2.4,0-3.593a.867.867,0,0,1,.849-.933,1.026,1.026,0,0,1,.239.03.892.892,0,0,1,.649.955c0,1.062,0,2.123,0,3.185v1.223h5.9q-.4-.8-.8-1.592l-.008-.016-.038-.075c-.791-1.574-1.607-3.2-2.4-4.8a.561.561,0,0,0-.586-.357h-.009c-.92.005-1.9.007-3.167.007h-.009l-3.37,0h-.069v14.22a4.544,4.544,0,0,1,4.267-2.993ZM6.455,17.6q-1.313,0-2.627,0H3.794a3.111,3.111,0,0,1-.4-.018.834.834,0,0,1-.748-.83.806.806,0,0,1,.656-.847,3.163,3.163,0,0,1,.662-.05h.085q4.533,0,9.067,0a1.967,1.967,0,0,1,.533.055.858.858,0,0,1-.117,1.668,2.475,2.475,0,0,1-.37.02h-.036q-1.274,0-2.547,0Zm7.862-3.744-7.342,0A1.03,1.03,0,0,1,6.22,13.6a.829.829,0,0,1-.225-.6.869.869,0,0,1,.991-.865q4.814,0,9.63,0a1.022,1.022,0,0,1,.747.269.836.836,0,0,1,.234.611c0,.256-.1.853-.989.854Zm-11.609,0H1.65c-.246,0-.492,0-.738,0A.87.87,0,0,1,.231,12.4.911.911,0,0,1,.9,12.128c.58,0,1.185-.006,1.8-.006.584,0,1.2,0,1.826.006a.911.911,0,0,1,.67.26.87.87,0,0,1,.239.623.844.844,0,0,1-.929.847c-.24,0-.483,0-.723,0ZM11.1,10.2H4.091a.864.864,0,0,1-.964-.849.831.831,0,0,1,.23-.608,1.02,1.02,0,0,1,.75-.276h9.665a.878.878,0,0,1,.952.72.844.844,0,0,1-.559.963,1.4,1.4,0,0,1-.441.051ZM4,6.381a.8.8,0,0,1-.557-.267.886.886,0,0,1-.219-.642.845.845,0,0,1,.855-.8c.09,0,.186-.005.3-.005.154,0,.31,0,.465,0l.478,0c.113,0,.209,0,.3,0a.841.841,0,0,1,.862.792.9.9,0,0,1-.21.655.783.783,0,0,1-.55.266c-.288.016-.581.024-.877.024C4.566,6.4,4.284,6.4,4,6.381ZM7.47,5.812a.771.771,0,0,1,.267-.942,1.226,1.226,0,0,1,.672-.2c.955-.005,1.905-.008,2.627-.008l2.19,0h4.816a1.052,1.052,0,0,1,.764.274.8.8,0,0,1,.23.588.891.891,0,0,1-1,.87q-4.816,0-9.631,0A.9.9,0,0,1,7.47,5.812Z" transform="translate(118.99 427.57)" fill="#ed1c24"/>
  </g>
</svg>
