<svg xmlns="http://www.w3.org/2000/svg" width="23.017" height="26.927" viewBox="0 0 23.017 26.927">
  <path id="Union_7" data-name="Union 7" d="M3470.366-3547.465a.9.9,0,0,1-.243-.145l-7.531-5.88-.252-.2a.723.723,0,0,1-.3-.566.716.716,0,0,1,.3-.561l2.616-2.043q2.584-2.019,5.166-4.037a.773.773,0,0,1,.481-.187.674.674,0,0,1,.293.069.694.694,0,0,1,.381.688c0,.682,0,1.375,0,2.046v.664h.86l1.47,0c.338,0,.617,0,.88,0h.047a3.722,3.722,0,0,0,2.349-.792.725.725,0,0,1,.445-.164.66.66,0,0,1,.357.109.631.631,0,0,1,.292.708.781.781,0,0,1-.257.407,4.825,4.825,0,0,1-2.957,1.076c-.513.008-1.064.012-1.735.012l-1.289,0c-.374,0-.746,0-1.12,0a.67.67,0,0,1-.694-.731c0-.556,0-1.121,0-1.668v-.358l-5.475,4.276-.626.489,2.625,2.05,3.476,2.714v-4.6c0-.041,0-.082,0-.122a.668.668,0,0,1,.673-.712.669.669,0,0,1,.677.712c0,.233,0,.47,0,.7v1.265c.33,0,.66,0,.99,0,.365,0,.729,0,1.094,0,.491,0,.9,0,1.281-.012a8.994,8.994,0,0,0,7.355-3.826,8.766,8.766,0,0,0,1.635-4.17,7.242,7.242,0,0,0,.064-1.023.7.7,0,0,1,.677-.773h.013a.627.627,0,0,1,.461.188.809.809,0,0,1,.208.6,10.344,10.344,0,0,1-3.283,7.487A10.163,10.163,0,0,1,3476-3551a11.689,11.689,0,0,1-1.453.1c-.415.005-.866.007-1.417.007l-1.86,0v.3c0,.243,0,.486,0,.73,0,.567,0,1.152,0,1.729a.679.679,0,0,1-.665.716A.7.7,0,0,1,3470.366-3547.465Zm-7.651-12.261a.649.649,0,0,1-.465-.189.78.78,0,0,1-.212-.56,10.42,10.42,0,0,1,2.312-6.477,10.444,10.444,0,0,1,5.826-3.663,10.711,10.711,0,0,1,2.332-.262h.033q1.159,0,2.318,0h.961v-1.221c0-.49,0-1,0-1.5a.688.688,0,0,1,.385-.686.669.669,0,0,1,.289-.067.78.78,0,0,1,.484.19q3.651,2.855,7.3,5.706l.453.354a.729.729,0,0,1,.32.579.724.724,0,0,1-.319.577l-2.016,1.575q-2.871,2.242-5.74,4.486a.788.788,0,0,1-.487.191.664.664,0,0,1-.286-.067.686.686,0,0,1-.388-.686c0-.695,0-1.4,0-2.083v-.632l-1.923,0c-.507,0-.924,0-1.311,0h-.027a3.721,3.721,0,0,0-2.341.788.675.675,0,0,1-.794.066.643.643,0,0,1-.3-.731.8.8,0,0,1,.261-.4,4.8,4.8,0,0,1,2.912-1.068c.525-.009,1.09-.013,1.779-.013q.648,0,1.295,0l1.116,0a.671.671,0,0,1,.686.723c0,.552,0,1.112,0,1.654v.38l6.1-4.765-6.1-4.766q0,2.313,0,4.623v.027a1.616,1.616,0,0,1-.006.171.657.657,0,0,1-.665.617h-.005a.66.66,0,0,1-.673-.627,1.323,1.323,0,0,1,0-.132v-1.915c-.676,0-1.352,0-2.027,0-.467,0-.853,0-1.218,0h-.086a9.2,9.2,0,0,0-8.869,7.1,8.993,8.993,0,0,0-.226,1.956.686.686,0,0,1-.669.74Z" transform="translate(-3462.036 3574.349)" fill="#ed1c24"/>
</svg>
